<svg xmlns="http://www.w3.org/2000/svg" viewBox="0 0 162.689 184.664"><g data-name="Layer 2"><g data-name="ART"><path d="M144.659 178.804c-12.761-3.513-14.23-18.885-3.482-28.49L53.77 130.537l-17.273 22.058-.288 15.086 2.828 14.255 12.967 1.642z" fill="#ebdaa7"/><path d="M52.003 184.425a.975.975 0 01-.106-.007l-12.968-1.642a.847.847 0 01-.723-.675l-2.828-14.255a.867.867 0 01-.016-.181l.287-15.087a.843.843 0 01.18-.505l17.274-22.057a.832.832 0 01.852-.303l87.41 19.776a.846.846 0 01.376 1.456c-5.407 4.833-7.905 11.51-6.518 17.425a13.019 13.019 0 009.66 9.618.846.846 0 01-.18 1.66l-92.656 4.775-.044.002zm-12.256-3.251l12.288 1.555 88.744-4.573a14.249 14.249 0 01-7.204-9.4c-1.423-6.072.818-12.828 5.875-17.965l-85.345-19.31-16.769 21.412-.28 14.713z" fill="#3e4147"/><path d="M143.62 154.134l-94.078.219c-14.162 4.006-16.098 23.773 2.997 24.891 0 0 88.348-.512 92.12-.44s2.181 4.317-1.851 4.744l-90.805.03c-14.588-.027-22.345-2.187-22.934-24.082 0 0-5.959-96.451-5.674-98.207.477-11.813 5.698-21.775 18.057-23.551L139.68 39.2z" fill="#c5a7d4"/><path d="M52.004 184.425c-13.962-.027-23.158-1.775-23.78-24.907-.602-9.733-5.827-94.483-5.672-98.262h-.002c.558-13.843 7.404-22.72 18.78-24.356a.34.34 0 01.134-.008l98.229 1.463a.845.845 0 01.833.817l3.94 114.932a.847.847 0 01-.844.876l-93.96.218c-5.502 1.606-10.916 6.865-10.19 13.527.612 5.613 5.516 9.229 13.117 9.674 3.553-.022 88.346-.522 92.086-.441 2.117.04 2.92 1.205 2.967 2.282.076 1.754-1.813 3.84-4.745 4.15zM41.506 38.585C27.2 40.68 24.547 53.726 24.241 61.324a.872.872 0 01-.01.102c-.165 2.09 3.645 65.033 5.683 98.018.564 20.957 7.5 23.26 22.09 23.287l90.803-.03c1.939-.209 3.18-1.556 3.144-2.389-.024-.576-.923-.655-1.308-.663-3.72-.058-91.216.437-92.099.442-6.613-.386-13.92-3.525-14.754-11.182-.73-6.698 4.222-13.306 11.521-15.371a.902.902 0 01.229-.032l93.204-.216-3.882-113.255z" fill="#3e4147"/><path d="M92.187 131.566a15.537 15.537 0 01-7.237-1.713c-4.9-2.542-8.347-7.768-9.705-14.715a.846.846 0 011.661-.324c1.257 6.43 4.39 11.237 8.824 13.537 4.238 2.2 9.504 2.01 15.226-.551 5.2-2.326 8.99-6.858 9.89-11.827a12.446 12.446 0 00-3.805-11.286c-3.215-3.177-7.939-4.481-12.508-5.744-5.79-1.6-11.776-3.253-14.87-8.724a13.268 13.268 0 01.066-14.127c3.812-6.262 12.407-10.576 20.435-10.282 5.911.224 10.49 2.945 12.894 7.66a.846.846 0 11-1.508.768c-2.112-4.145-6.179-6.537-11.45-6.736-7.324-.254-15.469 3.794-18.926 9.47a11.655 11.655 0 00-.037 12.413c2.748 4.86 8.14 6.35 13.847 7.927 4.778 1.32 9.718 2.685 13.246 6.172a14.092 14.092 0 014.282 12.791c-1 5.51-5.163 10.519-10.864 13.07a23.292 23.292 0 01-9.46 2.221z" fill="#3e4147"/><path d="M90.188 138.664l-.034-.001a.847.847 0 01-.812-.88c.178-4.388.423-8.887.62-12.503.22-4.046.394-7.241.36-8.153-.456-12.158.065-24.493.57-36.423.313-7.425.638-15.102.724-22.658a.847.847 0 01.846-.837h.01a.845.845 0 01.836.856c-.086 7.582-.411 15.273-.726 22.71-.503 11.897-1.023 24.198-.569 36.287.038.991-.13 4.06-.36 8.31-.198 3.611-.442 8.104-.62 12.48a.847.847 0 01-.845.812zM101.218 136.873a.847.847 0 01-.847-.837c-.003-.24-.278-24.233.435-35.723.767-12.356 1.027-42.424 1.03-42.725a.847.847 0 01.845-.84h.008a.847.847 0 01.839.853c-.003.303-.263 30.415-1.033 42.818-.709 11.427-.434 35.357-.431 35.597a.845.845 0 01-.836.856z" fill="#3e4147"/><path d="M144.659 178.804c-3.772-.072-92.12.44-92.12.44-18.694-1.095-17.224-20.053-3.866-24.608L42.808 37.758l-1.356-.02c-12.36 1.776-17.58 11.738-18.057 23.551-.285 1.756 5.674 98.207 5.674 98.207.59 21.895 8.346 24.055 22.934 24.082l90.805-.03c4.032-.427 5.623-4.672 1.85-4.744z" fill="#c5a7d4"/><path d="M52.004 184.664c-14.103-.027-23.392-1.79-24.02-25.139-.98-15.85-5.805-94.25-5.67-98.28h-.004c.563-13.969 7.484-22.929 18.987-24.582a1.25 1.25 0 01.17-.01l98.23 1.462a1.086 1.086 0 011.069 1.049l3.94 114.932a1.086 1.086 0 01-1.084 1.123l-93.925.22C44.3 157.026 39 162.18 39.71 168.698c.598 5.486 5.418 9.022 12.892 9.46 3.538-.023 88.335-.518 92.076-.441 2.287.043 3.155 1.38 3.204 2.511.08 1.864-1.894 4.075-4.96 4.399a1.112 1.112 0 01-.115.006zM41.522 38.826c-14.12 2.078-16.738 14.987-17.041 22.508a.96.96 0 01-.013.13c-.155 2.332 4.051 71.51 5.686 97.964.59 21.914 8.688 23.039 21.851 23.064l90.743-.03c1.968-.23 2.99-1.528 2.964-2.139-.017-.394-.898-.43-1.074-.434-3.709-.063-91.209.437-92.092.44-6.727-.39-14.144-3.588-14.995-11.395-.743-6.812 4.285-13.53 11.695-15.627a1.067 1.067 0 01.293-.04l92.957-.217-3.866-112.778z" fill="#3e4147"/><path d="M46.707 101.298l-1.819-40.553c-.996-18.213-1.516-18.191-1.516-18.191s-.52.022.028 18.254l1.616 40.562.858 19.74c1.314 27.958 2.008 27.929 2.008 27.929s.694-.03-.36-27.999l-.815-19.742z" fill="#3e4147"/><path fill="#f3783c" d="M49.16 34.194l3.441 41.503 7.713-8.258 9.103 8.424-3.384-41.643-16.873-.026z"/><path d="M69.417 76.709a.844.844 0 01-.575-.226l-8.484-7.85-7.138 7.641a.846.846 0 01-1.462-.507l-3.442-41.503a.848.848 0 01.843-.917h.002l16.873.027a.846.846 0 01.842.778l3.384 41.642a.848.848 0 01-.843.915zm-9.103-10.116a.844.844 0 01.575.225l7.508 6.947-3.145-38.7-15.173-.023 3.208 38.681 6.409-6.861a.845.845 0 01.618-.27zM134.385 165.266c.144.044.146-.093.171-.2l.078-.318.156-.636.19-.775.308-1.262.356-1.457.305-1.247.152-.622c.041-.074-.034-.057-.086-.058h-.48l-5.95-.012-9.657-.016-17.642-.016-28.705.02c-20.362.205-20.363.786-20.363.786s-.002.581 20.36.877l28.704.145 17.642.062 9.658.027 4.129.01-.688 2.808-15.605.063-6.496.03-9.456.049c-31.244.266-31.241 1.033-31.241 1.033s.003.766 31.248.804l9.456-.021 6.496-.018 16.96-.056zM105.32 169.152c-1.806-.004-3.223.037-4.271.103-20.363.202-20.364.783-20.364.783s-.002.581 20.36.88c1.048.072 2.464.12 4.27.124l6.88-.034 10.9-.105c3.004-.046 5.415-.102 7.343-.161l2.543-.093c.719-.03 1.457-.062 1.671-.094l1.038 1.644c.288.445.49.736.632.927.283.38.323.36.323.36s.04-.022-.116-.47a18.198 18.198 0 00-.413-1.043l-.374-.857-.238-.528-.385-.808-4.679-.208a475.126 475.126 0 00-7.34-.197l-10.9-.156-6.88-.067z" fill="#3e4147"/><path d="M158.926 129.195c-13.162 1.398-20.15-12.371-13.66-25.242L56.68 117.518l-8.009 26.847 5.25 14.146 7.847 12.233 12.669-3.216z" fill="#ebdaa7"/><path d="M61.768 171.59a.848.848 0 01-.713-.39l-7.846-12.232a.838.838 0 01-.08-.162l-5.251-14.146a.85.85 0 01-.018-.537l8.008-26.847a.847.847 0 01.684-.595l88.585-13.565a.859.859 0 01.813.34.846.846 0 01.07.878c-3.265 6.476-3.147 13.604.307 18.602a13.01 13.01 0 0012.51 5.417.846.846 0 01.439 1.613l-84.49 38.333a.885.885 0 01-.141.05l-12.67 3.215a.843.843 0 01-.207.027zm-7.085-13.458l7.468 11.641 12.005-3.047 80.922-36.715a14.246 14.246 0 01-10.143-6.113c-3.546-5.13-3.93-12.238-1.103-18.87l-86.495 13.245-7.774 26.063z" fill="#3e4147"/><path d="M148.936 106.615l-87.48 34.614c-11.715 8.909-6.287 28.014 11.895 22.07 0 0 82.038-32.791 85.575-34.104s3.61 3.22.012 5.093l-84.501 33.24c-13.588 5.312-21.597 6.138-30.153-14.024 0 0-40.825-87.588-41.201-89.326-3.878-11.17-2.662-22.35 8.19-28.524L103.23 1.087z" fill="#fdbe2a"/><path d="M158.926 129.195c-3.537 1.313-85.575 34.104-85.575 34.104-17.8 5.819-23.365-12.363-12.6-21.489L12.543 35.176l-1.27.478C.42 41.828-.795 53.009 3.083 64.178c.376 1.738 41.2 89.326 41.2 89.326 8.557 20.162 16.566 19.336 30.154 14.024l84.501-33.24c3.598-1.872 3.525-6.405-.012-5.093z" fill="#e8a91b"/><path d="M61.779 171.844c-6.858.001-12.71-4.282-18.495-17.916-6.71-14.394-39.88-85.605-41.225-89.395h-.003C-2.53 51.327.635 40.457 10.736 34.71a1.035 1.035 0 01.155-.073L102.848.071a1.084 1.084 0 011.38.585l45.704 105.527a1.085 1.085 0 01-.597 1.442l-87.337 34.558c-4.442 3.452-7.49 10.186-4.445 15.993 2.564 4.887 8.341 6.415 15.46 4.091 3.285-1.315 82.026-32.788 85.535-34.09 2.143-.796 3.44.13 3.9 1.165.755 1.705-.272 4.486-3.008 5.91a.994.994 0 01-.104.047l-84.502 33.24c-4.806 1.879-9.098 3.305-13.055 3.305zM11.737 36.64C-.643 43.74 1.64 56.712 4.109 63.821a1.15 1.15 0 01.035.126c.709 2.228 29.927 65.074 41.125 89.098 8.112 19.114 15.33 18.724 28.772 13.471l84.444-33.217c1.748-.934 2.224-2.516 1.976-3.076-.16-.358-.992-.07-1.157-.01-3.483 1.294-84.73 33.767-85.55 34.095-6.404 2.097-14.477 1.833-18.124-5.122-3.183-6.07-.961-14.16 5.169-18.822a1.098 1.098 0 01.257-.145l86.436-34.202L102.644 2.468z" fill="#3e4147"/><path d="M38.156 89.455c-5.44-12.285-9.75-21.9-12.98-28.997-9.743-21.295-10.354-21.025-10.354-21.025s-.61.27 8.605 21.8c3.084 7.161 7.303 16.816 12.742 29.101l6.284 14.129c14.7 32.788 15.515 32.427 15.515 32.427s.816-.36-13.577-33.285l-6.235-14.15zM137.838 122.965l5.28-2.098 1.263-.502c.045-.026.127-.031.142-.075l-.023-.173-.047-.345-.093-.69-.203-1.493-.519-3.827c-.01-.05-.007-.126-.03-.154l-.159.061-.317.124-.632.247-1.19.465-1.254.49-2.484.972-4.86 1.9-18.013 7.058-29.29 11.526c-18.877 7.64-18.666 8.18-18.666 8.18s.211.542 19.27-6.63l29.351-11.373 18.03-7.015 8.676-3.381.217 1.61.17 1.256-.037.014-5.28 2.097-9.187 3.652-6.035 2.401-17.619 7.02C75.317 145.96 75.6 146.673 75.6 146.673s.283.713 29.377-10.681l17.634-6.983 6.038-2.395 9.189-3.648zM109.65 138.165c-9.617 3.754-17.143 6.738-22.7 8.98-18.877 7.636-18.666 8.177-18.666 8.177s.211.542 19.271-6.627c5.607-2.114 13.165-5.016 22.782-8.77l11.06-4.34c7.384-2.922 12.874-5.148 16.95-6.84l5.113-2.161 1.875-.819.786-.35.18-.081.097-.05.196-.097.347.246.464.348.754.551c.432.308.727.505.929.63.404.25.434.215.434.215s.03-.036-.278-.397c-.155-.18-.394-.442-.765-.821l-.66-.662-.414-.405-.657-.614-3.693 1.267-5.226 1.874c-4.145 1.515-9.69 3.596-17.102 6.449l-11.077 4.297z" fill="#3e4147"/><path fill="#9569b8" d="M81.753 144.279l14.178 28.819 3.207-8.103 8.91 3.479-14.176-28.937-12.119 4.742z"/><path d="M95.93 174.137a1.039 1.039 0 01-.932-.58l-14.177-28.819a1.04 1.04 0 01.554-1.427l12.118-4.741a1.036 1.036 0 011.312.51l14.176 28.936a1.04 1.04 0 01-1.31 1.425l-7.947-3.102-2.827 7.142a1.04 1.04 0 01-.925.655l-.041.001zm-12.745-29.302l12.643 25.7 2.344-5.923a1.039 1.039 0 011.344-.585l6.426 2.508-12.582-25.68z" fill="#3e4147"/></g></g></svg>
